<?xml version='1.0' encoding='utf-8'?>
<!DOCTYPE svg>
<!-- Generator: Adobe Illustrator 15.0.0, SVG Export Plug-In . SVG Version: 6.00 Build 0)  -->
<svg xmlns="http://www.w3.org/2000/svg" y="0px" xml:space="preserve" x="0px" id="Layer_1" version="1.1" width="1.13889in" xmlns:xml="http://www.w3.org/XML/1998/namespace" enable-background="new 0 0 82 82"  viewBox="0 0 82 82" gorn="0" height="1.13889in">
    <desc >
        <referenceFile >SSD1306_SPI_128x64BB.svg</referenceFile>
    </desc>
    <g >
        <path fill="#006699" d="M77.363,0.153H3.946c-1.66,0-4.006,2.571-4.006,5.745v70.205c0,3.171,2.346,5.743,4.006,5.743H78.05c1.66,0,4.009-2.572,4.009-5.743V5.897C82.059,2.724,79.023,0.153,77.363,0.153z M13.052,80.501v0.006h-0.047c-0.094,0.006-0.183,0.026-0.276,0.026c-0.112,0-0.22-0.021-0.328-0.026H8.052c-0.108,0.008-0.215,0.026-0.327,0.026c-2.313,0-4.188-1.875-4.188-4.188c0-2.312,1.875-4.188,4.188-4.188h5.327v0.033c2.158,0.168,3.863,1.953,3.863,4.154C16.915,78.548,15.212,80.333,13.052,80.501z M13.677,10.626v0.005H13.63c-0.094,0.006-0.183,0.028-0.276,0.028c-0.112,0-0.22-0.019-0.328-0.028H8.677c-0.108,0.009-0.215,0.028-0.327,0.028c-2.313,0-4.188-1.875-4.188-4.188S6.036,2.283,8.35,2.283h5.327v0.033c2.158,0.168,3.863,1.953,3.863,4.155C17.54,8.673,15.837,10.458,13.677,10.626z M74.177,80.251v0.006H74.13c-0.094,0.006-0.183,0.026-0.276,0.026c-0.112,0-0.22-0.021-0.328-0.026h-4.349c-0.108,0.008-0.215,0.026-0.327,0.026c-2.313,0-4.188-1.875-4.188-4.188c0-2.312,1.875-4.188,4.188-4.188h5.327v0.033c2.158,0.168,3.863,1.953,3.863,4.154C78.04,78.298,76.337,80.083,74.177,80.251z M75.177,11v0.006H75.13c-0.094,0.006-0.183,0.027-0.276,0.027c-0.112,0-0.22-0.02-0.328-0.027h-4.349c-0.108,0.008-0.215,0.027-0.327,0.027c-2.313,0-4.188-1.875-4.188-4.188s1.875-4.188,4.188-4.188h5.327V2.69c2.158,0.168,3.863,1.953,3.863,4.155C79.04,9.047,77.337,10.833,75.177,11z" />
        <rect y="1.473" x="17.2826" width="3.713" fill="#454545"  height="7.427"/>
        <polygon fill="#454545" points="15.4246,3.328 17.2826,1.473 17.2826,8.899 15.4246,7.041 " />
        <polygon fill="#454545" points="20.9936,1.473 22.8546,3.328 22.8546,7.041 20.9936,8.899 " />
        <rect y="4.349" x="18.4846" id="connector7pin" width="1.312" fill="#B68B2D"  gorn="0.1.4" height="1.668"/>
        <rect y="1.473" x="24.4826" width="3.713" fill="#454545"  height="7.427"/>
        <polygon fill="#454545" points="22.6246,3.328 24.4826,1.473 24.4826,8.899 22.6246,7.041 " />
        <polygon fill="#454545" points="28.1936,1.473 30.0546,3.328 30.0546,7.041 28.1936,8.899 " />
        <rect y="4.349" x="25.6846" id="connector6pin" width="1.312" fill="#B68B2D"  gorn="0.1.8" height="1.668"/>
        <rect y="1.473" x="31.6826" width="3.713" fill="#454545"  height="7.427"/>
        <polygon fill="#454545" points="29.8246,3.328 31.6826,1.473 31.6826,8.899 29.8246,7.041 " />
        <polygon fill="#454545" points="35.3936,1.473 37.2546,3.328 37.2546,7.041 35.3936,8.899 " />
        <rect y="4.349" x="32.8846" id="connector5pin" width="1.312" fill="#B68B2D"  gorn="0.1.12" height="1.668"/>
        <rect y="1.473" x="38.8846" width="3.713" fill="#454545"  height="7.427"/>
        <polygon fill="#454545" points="37.0246,3.328 38.8846,1.473 38.8846,8.899 37.0246,7.041 " />
        <polygon fill="#454545" points="42.5956,1.473 44.4536,3.328 44.4536,7.041 42.5956,8.899 " />
        <rect y="4.349" x="40.0826" id="connector4pin" width="1.312" fill="#B68B2D"  gorn="0.1.16" height="1.668"/>
        <rect y="1.473" x="46.0826" width="3.713" fill="#454545"  height="7.427"/>
        <polygon fill="#454545" points="44.2256,3.328 46.0826,1.473 46.0826,8.899 44.2256,7.041 " />
        <polygon fill="#454545" points="49.7956,1.473 51.6536,3.328 51.6536,7.041 49.7956,8.899 " />
        <rect y="4.349" x="47.2836" id="connector3pin" width="1.312" fill="#B68B2D"  gorn="0.1.20" height="1.668"/>
        <rect y="1.473" x="53.1604" width="3.713" fill="#454545"  height="7.427"/>
        <polygon fill="#454545" points="51.3024,3.328 53.1604,1.473 53.1604,8.899 51.3024,7.041 " />
        <polygon fill="#454545" points="56.8714,1.473 58.7294,3.328 58.7294,7.041 56.8714,8.899 " />
        <rect y="4.349" x="54.3584" id="connector2pin" width="1.312" fill="#B68B2D"  gorn="0.1.24" height="1.668"/>
        <rect y="1.473" x="60.3604" width="3.713" fill="#454545"  height="7.427"/>
        <polygon fill="#454545" points="58.5024,3.328 60.3604,1.473 60.3604,8.899 58.5024,7.041 " />
        <polygon fill="#454545" points="64.0714,1.473 65.9294,3.328 65.9294,7.041 64.0714,8.899 " />
        <rect y="4.349" x="61.5584" id="connector1pin" width="1.312" fill="#B68B2D"  gorn="0.1.28" height="1.668"/>
        <g transform="matrix(1 0 0 1 16.1800 12.1396)" >
            <g >
                <g >
                    <g >
                        <g >
                            <g >
                                <g >
                                    <g >
                                        <g >
                                            <g >
                                                <g >
                                                    <text font-size="2.5" fill="#FFFFFF" font-family="OCRA" >RES</text>
                                                </g>
                                            </g>
                                        </g>
                                    </g>
                                </g>
                            </g>
                        </g>
                    </g>
                </g>
            </g>
        </g>
        <g transform="matrix(1 0 0 1 23.5033 12.1396)" >
            <g >
                <g >
                    <g >
                        <g >
                            <g >
                                <g >
                                    <g >
                                        <g >
                                            <g >
                                                <g >
                                                    <text font-size="2.5" fill="#FFFFFF" font-family="OCRA" >D/C</text>
                                                </g>
                                            </g>
                                        </g>
                                    </g>
                                </g>
                            </g>
                        </g>
                    </g>
                </g>
            </g>
        </g>
        <g transform="matrix(1 0 0 1 30.8266 12.1396)" >
            <g >
                <g >
                    <g >
                        <g >
                            <g >
                                <g >
                                    <g >
                                        <g >
                                            <g >
                                                <g >
                                                    <text font-size="2.5" fill="#FFFFFF" font-family="OCRA" >CS</text>
                                                </g>
                                            </g>
                                        </g>
                                    </g>
                                </g>
                            </g>
                        </g>
                    </g>
                </g>
            </g>
        </g>
        <g transform="matrix(1 0 0 1 38.1499 12.1396)" >
            <g >
                <g >
                    <g >
                        <g >
                            <g >
                                <g >
                                    <g >
                                        <g >
                                            <g >
                                                <g >
                                                    <text font-size="2.5" fill="#FFFFFF" font-family="OCRA" >CLK</text>
                                                </g>
                                            </g>
                                        </g>
                                    </g>
                                </g>
                            </g>
                        </g>
                    </g>
                </g>
            </g>
        </g>
        <g transform="matrix(1 0 0 1 45.4731 12.1396)" >
            <g >
                <g >
                    <g >
                        <g >
                            <g >
                                <g >
                                    <g >
                                        <g >
                                            <g >
                                                <g >
                                                    <text font-size="2.5" fill="#FFFFFF" font-family="OCRA" >DIN</text>
                                                </g>
                                            </g>
                                        </g>
                                    </g>
                                </g>
                            </g>
                        </g>
                    </g>
                </g>
            </g>
        </g>
        <g transform="matrix(1 0 0 1 52.7965 12.1396)" >
            <g >
                <g >
                    <g >
                        <g >
                            <g >
                                <g >
                                    <g >
                                        <g >
                                            <g >
                                                <g >
                                                    <text font-size="2.5" fill="#FFFFFF" font-family="OCRA" >GND</text>
                                                </g>
                                            </g>
                                        </g>
                                    </g>
                                </g>
                            </g>
                        </g>
                    </g>
                </g>
            </g>
        </g>
        <g transform="matrix(1 0 0 1 60.1198 12.1396)" >
            <g >
                <g >
                    <g >
                        <g >
                            <g >
                                <g >
                                    <g >
                                        <g >
                                            <g >
                                                <g >
                                                    <text font-size="2.5" fill="#FFFFFF" font-family="OCRA" >VCC</text>
                                                </g>
                                            </g>
                                        </g>
                                    </g>
                                </g>
                            </g>
                        </g>
                    </g>
                </g>
            </g>
        </g>
        <rect y="12.726" x="1.238" width="79.125" fill="#231F20"  height="46"/>
        <rect y="14.101" x="3.113" width="76.125" fill="#00435E"  height="43.5"/>
        <rect y="57.726" x="25.988" width="30" fill="#231F20"  height="23.375"/>
        <g transform="matrix(1 0 0 1 30.7334 64.6006)" >
            <g >
                <g >
                    <g >
                        <g >
                            <g >
                                <g >
                                    <g >
                                        <g >
                                            <g >
                                                <g >
                                                    <text font-size="2.5" fill="#FFFFFF" font-family="OCRA" >OLED 96x64</text>
                                                </g>
                                            </g>
                                        </g>
                                    </g>
                                </g>
                            </g>
                        </g>
                    </g>
                </g>
            </g>
        </g>
        <g transform="matrix(1 0 0 1 34.3076 67.6006)" >
            <g >
                <g >
                    <g >
                        <g >
                            <g >
                                <g >
                                    <g >
                                        <g >
                                            <g >
                                                <g >
                                                    <text font-size="2.5" fill="#FFFFFF" font-family="OCRA" >SSD1331</text>
                                                </g>
                                            </g>
                                        </g>
                                    </g>
                                </g>
                            </g>
                        </g>
                    </g>
                </g>
            </g>
        </g>
        <g transform="matrix(1 0 0 1 35.3823 73.6006)" >
            <g >
                <g >
                    <g >
                        <g >
                            <g >
                                <g >
                                    <g >
                                        <g >
                                            <g >
                                                <g >
                                                    <text font-size="5" fill="#FFFFFF" font-family="OCRA" >SPI</text>
                                                </g>
                                            </g>
                                        </g>
                                    </g>
                                </g>
                            </g>
                        </g>
                    </g>
                </g>
            </g>
        </g>
    </g>
</svg>
