<?xml version="1.0" encoding="UTF-8" standalone="no"?>
<svg
   xmlns:dc="http://purl.org/dc/elements/1.1/"
   xmlns:cc="http://creativecommons.org/ns#"
   xmlns:rdf="http://www.w3.org/1999/02/22-rdf-syntax-ns#"
   xmlns:svg="http://www.w3.org/2000/svg"
   xmlns="http://www.w3.org/2000/svg"
   xmlns:sodipodi="http://sodipodi.sourceforge.net/DTD/sodipodi-0.dtd"
   xmlns:inkscape="http://www.inkscape.org/namespaces/inkscape"
   version="1.1"
   id="svg5433"
   viewBox="0 0 744.09448819 1052.3622047"
   height="297mm"
   width="210mm"
   inkscape:version="0.91 r13725"
   sodipodi:docname="ssd1331.svg">
  <sodipodi:namedview
     pagecolor="#ffffff"
     bordercolor="#666666"
     borderopacity="1"
     objecttolerance="10"
     gridtolerance="10"
     guidetolerance="10"
     inkscape:pageopacity="0"
     inkscape:pageshadow="2"
     inkscape:window-width="1855"
     inkscape:window-height="1056"
     id="namedview5498"
     showgrid="false"
     inkscape:zoom="5.0743654"
     inkscape:cx="492.02441"
     inkscape:cy="738.47674"
     inkscape:window-x="65"
     inkscape:window-y="24"
     inkscape:window-maximized="1"
     inkscape:current-layer="svg5433" />
  <defs
     id="defs5435" />
  <metadata
     id="metadata5438">
    <rdf:RDF>
      <cc:Work
         rdf:about="">
        <dc:format>image/svg+xml</dc:format>
        <dc:type
           rdf:resource="http://purl.org/dc/dcmitype/StillImage" />
        <dc:title />
      </cc:Work>
    </rdf:RDF>
  </metadata>
  <path
     style="color:#000000;font-style:normal;font-variant:normal;font-weight:normal;font-stretch:normal;font-size:medium;line-height:normal;font-family:sans-serif;text-indent:0;text-align:start;text-decoration:none;text-decoration-line:none;text-decoration-style:solid;text-decoration-color:#000000;letter-spacing:normal;word-spacing:normal;text-transform:none;direction:ltr;block-progression:tb;writing-mode:lr-tb;baseline-shift:baseline;text-anchor:start;white-space:normal;clip-rule:nonzero;display:inline;overflow:visible;visibility:visible;opacity:1;isolation:auto;mix-blend-mode:normal;color-interpolation:sRGB;color-interpolation-filters:linearRGB;solid-color:#000000;solid-opacity:1;fill:#4d4d4d;fill-opacity:1;fill-rule:nonzero;stroke:none;stroke-width:0.35433069;stroke-linecap:round;stroke-linejoin:miter;stroke-miterlimit:4;stroke-dasharray:none;stroke-dashoffset:0;stroke-opacity:1;paint-order:normal;color-rendering:auto;image-rendering:auto;shape-rendering:auto;text-rendering:auto;enable-background:accumulate"
     d="m 439.77734,269.5 0,0.17578 0,108.40625 96.71289,0 0,-108.58203 c -32.23763,0 -64.47526,0 -96.71289,0 z m 0.35547,0.35352 96.00391,0 0,107.875 -96.00391,0 z"
     id="rect2563"
     inkscape:connector-curvature="0"
     sodipodi:nodetypes="ccccccccccc" />
  <path
     style="display:inline;fill:#000000;fill-opacity:1;stroke:none;stroke-width:0.138;stroke-miterlimit:4;stroke-dasharray:none;stroke-opacity:1"
     d="m 533.72232,346.35999 -91.17595,0 0,-62.51 91.17595,0 z"
     id="rect22586-60-6-4-3"
     inkscape:connector-curvature="0" />
  <g
     id="text2590"
     style="font-style:normal;font-weight:normal;font-size:42.51968002px;line-height:0%;font-family:sans-serif;letter-spacing:0px;word-spacing:0px;display:inline;opacity:1;fill:#000000;fill-opacity:1;stroke:none;stroke-width:0.26458332;enable-background:new">
    <path
       inkscape:connector-curvature="0"
       id="path5503"
       style="font-size:37.49999619px;line-height:1.25;stroke-width:0.26458332"
       d="m 223.96306,310.73639 0,3.60718 q -2.10572,-1.00708 -3.97339,-1.50147 -1.86768,-0.49438 -3.60718,-0.49438 -3.02124,0 -4.66919,1.17187 -1.62964,1.17188 -1.62964,3.33252 0,1.81275 1.08033,2.74659 1.09863,0.91552 4.13818,1.48315 l 2.23389,0.45776 q 4.13818,0.78736 6.09741,2.78321 1.97754,1.97754 1.97754,5.31005 0,3.97339 -2.67334,6.02417 -2.65503,2.05078 -7.8003,2.05078 -1.94091,0 -4.13818,-0.43945 -2.17895,-0.43945 -4.5227,-1.30005 l 0,-3.80859 q 2.25219,1.26343 4.41284,1.9043 2.16064,0.64087 4.24804,0.64087 3.16773,0 4.88892,-1.24512 1.72119,-1.24512 1.72119,-3.55225 0,-2.01416 -1.24512,-3.14941 -1.2268,-1.13526 -4.04663,-1.70288 l -2.25219,-0.43946 q -4.13819,-0.82397 -5.98755,-2.58178 -1.84937,-1.75781 -1.84937,-4.88892 0,-3.62549 2.54517,-5.71289 2.56347,-2.0874 7.04956,-2.0874 1.92261,0 3.91845,0.3479 1.99585,0.3479 4.08326,1.0437 z" />
    <path
       inkscape:connector-curvature="0"
       id="path5505"
       style="font-size:37.49999619px;line-height:1.25;stroke-width:0.26458332"
       d="m 247.76677,310.73639 0,3.60718 q -2.10572,-1.00708 -3.97339,-1.50147 -1.86768,-0.49438 -3.60718,-0.49438 -3.02124,0 -4.66919,1.17187 -1.62964,1.17188 -1.62964,3.33252 0,1.81275 1.08032,2.74659 1.09864,0.91552 4.13819,1.48315 l 2.23388,0.45776 q 4.13819,0.78736 6.09742,2.78321 1.97753,1.97754 1.97753,5.31005 0,3.97339 -2.67334,6.02417 -2.65502,2.05078 -7.80029,2.05078 -1.94092,0 -4.13818,-0.43945 -2.17896,-0.43945 -4.52271,-1.30005 l 0,-3.80859 q 2.2522,1.26343 4.41285,1.9043 2.16064,0.64087 4.24804,0.64087 3.16773,0 4.88892,-1.24512 1.72119,-1.24512 1.72119,-3.55225 0,-2.01416 -1.24512,-3.14941 -1.2268,-1.13526 -4.04663,-1.70288 l -2.2522,-0.43946 q -4.13818,-0.82397 -5.98754,-2.58178 -1.84937,-1.75781 -1.84937,-4.88892 0,-3.62549 2.54517,-5.71289 2.56347,-2.0874 7.04956,-2.0874 1.9226,0 3.91845,0.3479 1.99585,0.3479 4.08326,1.0437 z" />
    <path
       inkscape:connector-curvature="0"
       id="path5507"
       style="font-size:37.49999619px;line-height:1.25;stroke-width:0.26458332"
       d="m 258.88127,312.87873 0,21.25854 4.46777,0 q 5.65796,0 8.27637,-2.56348 2.63671,-2.56347 2.63671,-8.09326 0,-5.49316 -2.63671,-8.03833 -2.61841,-2.56347 -8.27637,-2.56347 l -4.46777,0 z m -3.69873,-3.03955 7.59887,0 q 7.94678,0 11.66382,3.3142 3.71704,3.2959 3.71704,10.32715 0,7.06787 -3.73535,10.38208 -3.73535,3.31421 -11.64551,3.31421 l -7.59887,0 0,-27.33764 z" />
    <path
       inkscape:connector-curvature="0"
       id="path5509"
       style="font-size:37.49999619px;line-height:1.25;stroke-width:0.26458332"
       d="m 296.94889,334.06403 6.04248,0 0,-20.85571 -6.57349,1.31835 0,-3.36914 6.53687,-1.31835 3.69873,0 0,24.22485 6.04248,0 0,3.11279 -15.74707,0 0,-3.11279 z" />
    <path
       inkscape:connector-curvature="0"
       id="path5511"
       style="font-size:37.49999619px;line-height:1.25;stroke-width:0.26458332"
       d="m 331.39103,322.43683 q 2.65503,0.56763 4.13818,2.36206 1.50147,1.79443 1.50147,4.43115 0,4.04663 -2.78321,6.26221 -2.7832,2.21557 -7.91015,2.21557 -1.72119,0 -3.55225,-0.3479 -1.81274,-0.32959 -3.75366,-1.00708 l 0,-3.57055 q 1.53809,0.89721 3.36914,1.35498 1.83105,0.45776 3.8269,0.45776 3.47901,0 5.29175,-1.37329 1.83106,-1.37329 1.83106,-3.9917 0,-2.41699 -1.70288,-3.77197 -1.68457,-1.37329 -4.70581,-1.37329 l -3.18604,0 0,-3.03955 3.33252,0 q 2.72827,0 4.1748,-1.08032 1.44654,-1.09864 1.44654,-3.14942 0,-2.10571 -1.50147,-3.22265 -1.48315,-1.13526 -4.26635,-1.13526 -1.51978,0 -3.25928,0.32959 -1.7395,0.32959 -3.82691,1.02539 l 0,-3.29589 q 2.10572,-0.58594 3.93677,-0.87891 1.84937,-0.29297 3.47901,-0.29297 4.21142,0 6.66503,1.92261 2.45362,1.90429 2.45362,5.16357 0,2.27051 -1.30005,3.84522 -1.30005,1.55639 -3.69873,2.16064 z" />
    <path
       inkscape:connector-curvature="0"
       id="path5513"
       style="font-size:37.49999619px;line-height:1.25;stroke-width:0.26458332"
       d="m 355.26797,322.43683 q 2.65503,0.56763 4.13819,2.36206 1.50146,1.79443 1.50146,4.43115 0,4.04663 -2.7832,6.26221 -2.7832,2.21557 -7.91016,2.21557 -1.72119,0 -3.55224,-0.3479 -1.81275,-0.32959 -3.75366,-1.00708 l 0,-3.57055 q 1.53808,0.89721 3.36914,1.35498 1.83105,0.45776 3.8269,0.45776 3.479,0 5.29175,-1.37329 1.83105,-1.37329 1.83105,-3.9917 0,-2.41699 -1.70288,-3.77197 -1.68457,-1.37329 -4.70581,-1.37329 l -3.18603,0 0,-3.03955 3.33252,0 q 2.72827,0 4.1748,-1.08032 1.44653,-1.09864 1.44653,-3.14942 0,-2.10571 -1.50146,-3.22265 -1.48316,-1.13526 -4.26636,-1.13526 -1.51977,0 -3.25928,0.32959 -1.7395,0.32959 -3.8269,1.02539 l 0,-3.29589 q 2.10571,-0.58594 3.93677,-0.87891 1.84936,-0.29297 3.479,-0.29297 4.21143,0 6.66504,1.92261 2.45361,1.90429 2.45361,5.16357 0,2.27051 -1.30005,3.84522 -1.30005,1.55639 -3.69873,2.16064 z" />
    <path
       inkscape:connector-curvature="0"
       id="path5515"
       style="font-size:37.49999619px;line-height:1.25;stroke-width:0.26458332"
       d="m 368.57974,334.06403 6.04248,0 0,-20.85571 -6.57348,1.31835 0,-3.36914 6.53686,-1.31835 3.69873,0 0,24.22485 6.04248,0 0,3.11279 -15.74707,0 0,-3.11279 z" />
  </g>
  <g
     id="text3060"
     style="font-style:normal;font-weight:normal;font-size:42.51968002px;line-height:0%;font-family:sans-serif;letter-spacing:0px;word-spacing:0px;display:inline;opacity:1;fill:#000000;fill-opacity:1;stroke:none;stroke-width:0.26458332;enable-background:new">
    <path
       inkscape:connector-curvature="0"
       id="path5520"
       style="font-size:37.49999619px;line-height:1.25;stroke-width:0.26458332"
       d="m 223.96306,310.73639 0,3.60718 q -2.10572,-1.00708 -3.97339,-1.50147 -1.86768,-0.49438 -3.60718,-0.49438 -3.02124,0 -4.66919,1.17187 -1.62964,1.17188 -1.62964,3.33252 0,1.81275 1.08033,2.74659 1.09863,0.91552 4.13818,1.48315 l 2.23389,0.45776 q 4.13818,0.78736 6.09741,2.78321 1.97754,1.97754 1.97754,5.31005 0,3.97339 -2.67334,6.02417 -2.65503,2.05078 -7.8003,2.05078 -1.94091,0 -4.13818,-0.43945 -2.17895,-0.43945 -4.5227,-1.30005 l 0,-3.80859 q 2.25219,1.26343 4.41284,1.9043 2.16064,0.64087 4.24804,0.64087 3.16773,0 4.88892,-1.24512 1.72119,-1.24512 1.72119,-3.55225 0,-2.01416 -1.24512,-3.14941 -1.2268,-1.13526 -4.04663,-1.70288 l -2.25219,-0.43946 q -4.13819,-0.82397 -5.98755,-2.58178 -1.84937,-1.75781 -1.84937,-4.88892 0,-3.62549 2.54517,-5.71289 2.56347,-2.0874 7.04956,-2.0874 1.92261,0 3.91845,0.3479 1.99585,0.3479 4.08326,1.0437 z" />
    <path
       inkscape:connector-curvature="0"
       id="path5522"
       style="font-size:37.49999619px;line-height:1.25;stroke-width:0.26458332"
       d="m 247.76677,310.73639 0,3.60718 q -2.10572,-1.00708 -3.97339,-1.50147 -1.86768,-0.49438 -3.60718,-0.49438 -3.02124,0 -4.66919,1.17187 -1.62964,1.17188 -1.62964,3.33252 0,1.81275 1.08032,2.74659 1.09864,0.91552 4.13819,1.48315 l 2.23388,0.45776 q 4.13819,0.78736 6.09742,2.78321 1.97753,1.97754 1.97753,5.31005 0,3.97339 -2.67334,6.02417 -2.65502,2.05078 -7.80029,2.05078 -1.94092,0 -4.13818,-0.43945 -2.17896,-0.43945 -4.52271,-1.30005 l 0,-3.80859 q 2.2522,1.26343 4.41285,1.9043 2.16064,0.64087 4.24804,0.64087 3.16773,0 4.88892,-1.24512 1.72119,-1.24512 1.72119,-3.55225 0,-2.01416 -1.24512,-3.14941 -1.2268,-1.13526 -4.04663,-1.70288 l -2.2522,-0.43946 q -4.13818,-0.82397 -5.98754,-2.58178 -1.84937,-1.75781 -1.84937,-4.88892 0,-3.62549 2.54517,-5.71289 2.56347,-2.0874 7.04956,-2.0874 1.9226,0 3.91845,0.3479 1.99585,0.3479 4.08326,1.0437 z" />
    <path
       inkscape:connector-curvature="0"
       id="path5524"
       style="font-size:37.49999619px;line-height:1.25;stroke-width:0.26458332"
       d="m 258.88127,312.87873 0,21.25854 4.46777,0 q 5.65796,0 8.27637,-2.56348 2.63671,-2.56347 2.63671,-8.09326 0,-5.49316 -2.63671,-8.03833 -2.61841,-2.56347 -8.27637,-2.56347 l -4.46777,0 z m -3.69873,-3.03955 7.59887,0 q 7.94678,0 11.66382,3.3142 3.71704,3.2959 3.71704,10.32715 0,7.06787 -3.73535,10.38208 -3.73535,3.31421 -11.64551,3.31421 l -7.59887,0 0,-27.33764 z" />
    <path
       inkscape:connector-curvature="0"
       id="path5526"
       style="font-size:37.49999619px;line-height:1.25;stroke-width:0.26458332"
       d="m 296.94889,334.06403 6.04248,0 0,-20.85571 -6.57349,1.31835 0,-3.36914 6.53687,-1.31835 3.69873,0 0,24.22485 6.04248,0 0,3.11279 -15.74707,0 0,-3.11279 z" />
    <path
       inkscape:connector-curvature="0"
       id="path5528"
       style="font-size:37.49999619px;line-height:1.25;stroke-width:0.26458332"
       d="m 331.39103,322.43683 q 2.65503,0.56763 4.13818,2.36206 1.50147,1.79443 1.50147,4.43115 0,4.04663 -2.78321,6.26221 -2.7832,2.21557 -7.91015,2.21557 -1.72119,0 -3.55225,-0.3479 -1.81274,-0.32959 -3.75366,-1.00708 l 0,-3.57055 q 1.53809,0.89721 3.36914,1.35498 1.83105,0.45776 3.8269,0.45776 3.47901,0 5.29175,-1.37329 1.83106,-1.37329 1.83106,-3.9917 0,-2.41699 -1.70288,-3.77197 -1.68457,-1.37329 -4.70581,-1.37329 l -3.18604,0 0,-3.03955 3.33252,0 q 2.72827,0 4.1748,-1.08032 1.44654,-1.09864 1.44654,-3.14942 0,-2.10571 -1.50147,-3.22265 -1.48315,-1.13526 -4.26635,-1.13526 -1.51978,0 -3.25928,0.32959 -1.7395,0.32959 -3.82691,1.02539 l 0,-3.29589 q 2.10572,-0.58594 3.93677,-0.87891 1.84937,-0.29297 3.47901,-0.29297 4.21142,0 6.66503,1.92261 2.45362,1.90429 2.45362,5.16357 0,2.27051 -1.30005,3.84522 -1.30005,1.55639 -3.69873,2.16064 z" />
    <path
       inkscape:connector-curvature="0"
       id="path5530"
       style="font-size:37.49999619px;line-height:1.25;stroke-width:0.26458332"
       d="m 355.26797,322.43683 q 2.65503,0.56763 4.13819,2.36206 1.50146,1.79443 1.50146,4.43115 0,4.04663 -2.7832,6.26221 -2.7832,2.21557 -7.91016,2.21557 -1.72119,0 -3.55224,-0.3479 -1.81275,-0.32959 -3.75366,-1.00708 l 0,-3.57055 q 1.53808,0.89721 3.36914,1.35498 1.83105,0.45776 3.8269,0.45776 3.479,0 5.29175,-1.37329 1.83105,-1.37329 1.83105,-3.9917 0,-2.41699 -1.70288,-3.77197 -1.68457,-1.37329 -4.70581,-1.37329 l -3.18603,0 0,-3.03955 3.33252,0 q 2.72827,0 4.1748,-1.08032 1.44653,-1.09864 1.44653,-3.14942 0,-2.10571 -1.50146,-3.22265 -1.48316,-1.13526 -4.26636,-1.13526 -1.51977,0 -3.25928,0.32959 -1.7395,0.32959 -3.8269,1.02539 l 0,-3.29589 q 2.10571,-0.58594 3.93677,-0.87891 1.84936,-0.29297 3.479,-0.29297 4.21143,0 6.66504,1.92261 2.45361,1.90429 2.45361,5.16357 0,2.27051 -1.30005,3.84522 -1.30005,1.55639 -3.69873,2.16064 z" />
    <path
       inkscape:connector-curvature="0"
       id="path5532"
       style="font-size:37.49999619px;line-height:1.25;stroke-width:0.26458332"
       d="m 368.57974,334.06403 6.04248,0 0,-20.85571 -6.57348,1.31835 0,-3.36914 6.53686,-1.31835 3.69873,0 0,24.22485 6.04248,0 0,3.11279 -15.74707,0 0,-3.11279 z" />
  </g>
</svg>
